<svg xmlns="http://www.w3.org/2000/svg" viewBox="0 0 24 24" aria-hidden="true">
  <defs>
    <linearGradient id="ig" x1="0" y1="0" x2="1" y2="1">
      <stop offset="0" stop-color="#f58529"/>
      <stop offset="0.5" stop-color="#dd2a7b"/>
      <stop offset="1" stop-color="#8134af"/>
    </linearGradient>
  </defs>
  <path fill="url(#ig)" d="M12 2.2c3.2 0 3.6 0 4.9.1 1.2.1 1.9.3 2.3.5.6.2 1 .5 1.4.9.4.4.7.8.9 1.4.2.4.4 1.1.5 2.3.1 1.3.1 1.7.1 4.9s0 3.6-.1 4.9c-.1 1.2-.3 1.9-.5 2.3-.2.6-.5 1-.9 1.4-.4.4-.8.7-1.4.9-.4.2-1.1.4-2.3.5-1.3.1-1.7.1-4.9.1s-3.6 0-4.9-.1c-1.2-.1-1.9-.3-2.3-.5-.6-.2-1-.5-1.4-.9-.4-.4-.7-.8-.9-1.4-.2-.4-.4-1.1-.5-2.3C2.2 15.6 2.2 15.2 2.2 12s0-3.6.1-4.9c.1-1.2.3-1.9.5-2.3.2-.6.5-1 .9-1.4.4-.4.8-.7 1.4-.9.4-.2 1.1-.4 2.3-.5C8.4 2.2 8.8 2.2 12 2.2m0-2.2C8.7 0 8.3 0 7 0 5.7.1 4.8.3 4 .6c-.9.3-1.6.7-2.3 1.4C1 2.8.6 3.6.3 4.4.1 5.2 0 6.1 0 7.4 0 8.7 0 9.1 0 12s0 3.3.1 4.6c.1 1.3.3 2.2.6 3 .3.9.7 1.6 1.4 2.3.7.7 1.4 1.1 2.3 1.4.8.3 1.7.5 3 .6 1.3.1 1.7.1 4.6.1s3.3 0 4.6-.1c1.3-.1 2.2-.3 3-.6.9-.3 1.6-.7 2.3-1.4.7-.7 1.1-1.4 1.4-2.3.3-.8.5-1.7.6-3 .1-1.3.1-1.7.1-4.6s0-3.3-.1-4.6c-.1-1.3-.3-2.2-.6-3-.3-.9-.7-1.6-1.4-2.3C21.2 1 20.4.6 19.6.3 18.8.1 17.9 0 16.6 0 15.3 0 14.9 0 12 0z"/>
  <path fill="#fff" d="M12 5.8A6.2 6.2 0 1 0 12 18.2 6.2 6.2 0 1 0 12 5.8m0 10.2A4 4 0 1 1 12 8a4 4 0 0 1 0 8zM18.4 4.6a1.5 1.5 0 1 0 0 3 1.5 1.5 0 0 0 0-3z"/>
</svg>