<svg xmlns="http://www.w3.org/2000/svg" viewBox="0 0 24 24" fill="#25d366" aria-hidden="true">
  <path d="M.057 24l1.687-6.163A11.867 11.867 0 0 1 0 11.994C0 5.373 5.373 0 11.994 0 18.616 0 24 5.373 24 11.994S18.616 24 11.994 24c-1.96 0-3.79-.45-5.432-1.25L.057 24zM6.59 20.13c1.6.95 3.45 1.5 5.41 1.5 5.725 0 10.375-4.65 10.375-10.375S17.725.88 12 .88 1.625 5.53 1.625 11.255c0 2.03.59 3.92 1.61 5.51l-.95 3.48 3.3-.98z"/>
  <path fill="#fff" d="M17.472 14.327c-.297-.149-1.758-.867-2.03-.967-.273-.099-.472-.148-.672.149-.198.297-.768.966-.94 1.164-.173.198-.347.223-.644.074-.297-.149-1.255-.463-2.39-1.475-.883-.788-1.48-1.761-1.653-2.059-.173-.298-.018-.459.13-.608.134-.133.298-.347.446-.521.149-.173.198-.297.298-.496.099-.198.05-.372-.025-.521-.074-.149-.672-1.616-.921-2.21-.242-.58-.487-.502-.672-.51l-.573-.01c-.198 0-.52.074-.792.372s-1.04 1.016-1.04 2.479 1.065 2.876 1.213 3.074c.149.198 2.095 3.2 5.076 4.487.71.306 1.263.489 1.694.626.712.227 1.36.195 1.872.118.571-.085 1.758-.718 2.006-1.413.248-.694.248-1.289.173-1.413-.074-.124-.272-.198-.57-.347z"/>
</svg>